# xmcd
#
# Track frame offsets:
#	150
#	19451
#	40395
#	60874
#	76277
#	95925
#	115168
#	133741
#	152655
#	166530
#	185300
#
# Disc length: 2716 seconds
#
# Revision: 0
# Processed by: cddbd v1.5.1PL0 Copyright (c) Steve Scherf et al.
# Submitted via: dBpowerAMP V4.0
#
DISCID=860a9a0b
DTITLE=Malone Monteiro and Manu Kemp - Nha Amada
DYEAR=2005
DGENRE=Kizomba
TTITLE0=Amor Di Nha Vida
TTITLE1=Espian Di Lado
TTITLE2=Nha Amada
TTITLE3=Não
TTITLE4=Talvez Amanhã
TTITLE5=Raiva De Amor 2
TTITLE6=Pensa Na Mi E Na Bô
TTITLE7=Ten Razão
TTITLE8=Sodade Cabo Verde
TTITLE9=Nha Amada [Versão R&B]
TTITLE10=Pensa Na Mi E Na Bô [Versão R&B]
EXTD=Tiago Jesus: www.lusoafrica.net
EXTT0=
EXTT1=
EXTT2=
EXTT3=
EXTT4=
EXTT5=
EXTT6=
EXTT7=
EXTT8=
EXTT9=
EXTT10=
PLAYORDER=
